<svg id="mermaid-diagram-mermaid-g9fzr78" width="100%" xmlns="http://www.w3.org/2000/svg" xmlns:xlink="http://www.w3.org/1999/xlink" class="classDiagram" style="max-width: 286.015625px;" viewBox="0 0 286.015625 294" role="graphics-document document" aria-roledescription="class"><style>#mermaid-diagram-mermaid-g9fzr78{font-family:"trebuchet ms",verdana,arial,sans-serif;font-size:16px;fill:#000000;}@keyframes edge-animation-frame{from{stroke-dashoffset:0;}}@keyframes dash{to{stroke-dashoffset:0;}}#mermaid-diagram-mermaid-g9fzr78 .edge-animation-slow{stroke-dasharray:9,5!important;stroke-dashoffset:900;animation:dash 50s linear infinite;stroke-linecap:round;}#mermaid-diagram-mermaid-g9fzr78 .edge-animation-fast{stroke-dasharray:9,5!important;stroke-dashoffset:900;animation:dash 20s linear infinite;stroke-linecap:round;}#mermaid-diagram-mermaid-g9fzr78 .error-icon{fill:#552222;}#mermaid-diagram-mermaid-g9fzr78 .error-text{fill:#552222;stroke:#552222;}#mermaid-diagram-mermaid-g9fzr78 .edge-thickness-normal{stroke-width:1px;}#mermaid-diagram-mermaid-g9fzr78 .edge-thickness-thick{stroke-width:3.5px;}#mermaid-diagram-mermaid-g9fzr78 .edge-pattern-solid{stroke-dasharray:0;}#mermaid-diagram-mermaid-g9fzr78 .edge-thickness-invisible{stroke-width:0;fill:none;}#mermaid-diagram-mermaid-g9fzr78 .edge-pattern-dashed{stroke-dasharray:3;}#mermaid-diagram-mermaid-g9fzr78 .edge-pattern-dotted{stroke-dasharray:2;}#mermaid-diagram-mermaid-g9fzr78 .marker{fill:#666;stroke:#666;}#mermaid-diagram-mermaid-g9fzr78 .marker.cross{stroke:#666;}#mermaid-diagram-mermaid-g9fzr78 svg{font-family:"trebuchet ms",verdana,arial,sans-serif;font-size:16px;}#mermaid-diagram-mermaid-g9fzr78 p{margin:0;}#mermaid-diagram-mermaid-g9fzr78 g.classGroup text{fill:#999;stroke:none;font-family:"trebuchet ms",verdana,arial,sans-serif;font-size:10px;}#mermaid-diagram-mermaid-g9fzr78 g.classGroup text .title{font-weight:bolder;}#mermaid-diagram-mermaid-g9fzr78 .nodeLabel,#mermaid-diagram-mermaid-g9fzr78 .edgeLabel{color:#111111;}#mermaid-diagram-mermaid-g9fzr78 .edgeLabel .label rect{fill:#eee;}#mermaid-diagram-mermaid-g9fzr78 .label text{fill:#111111;}#mermaid-diagram-mermaid-g9fzr78 .labelBkg{background:#eee;}#mermaid-diagram-mermaid-g9fzr78 .edgeLabel .label span{background:#eee;}#mermaid-diagram-mermaid-g9fzr78 .classTitle{font-weight:bolder;}#mermaid-diagram-mermaid-g9fzr78 .node rect,#mermaid-diagram-mermaid-g9fzr78 .node circle,#mermaid-diagram-mermaid-g9fzr78 .node ellipse,#mermaid-diagram-mermaid-g9fzr78 .node polygon,#mermaid-diagram-mermaid-g9fzr78 .node path{fill:#eee;stroke:#999;stroke-width:1px;}#mermaid-diagram-mermaid-g9fzr78 .divider{stroke:#999;stroke-width:1;}#mermaid-diagram-mermaid-g9fzr78 g.clickable{cursor:pointer;}#mermaid-diagram-mermaid-g9fzr78 g.classGroup rect{fill:#eee;stroke:#999;}#mermaid-diagram-mermaid-g9fzr78 g.classGroup line{stroke:#999;stroke-width:1;}#mermaid-diagram-mermaid-g9fzr78 .classLabel .box{stroke:none;stroke-width:0;fill:#eee;opacity:0.5;}#mermaid-diagram-mermaid-g9fzr78 .classLabel .label{fill:#999;font-size:10px;}#mermaid-diagram-mermaid-g9fzr78 .relation{stroke:#666;stroke-width:1;fill:none;}#mermaid-diagram-mermaid-g9fzr78 .dashed-line{stroke-dasharray:3;}#mermaid-diagram-mermaid-g9fzr78 .dotted-line{stroke-dasharray:1 2;}#mermaid-diagram-mermaid-g9fzr78 #compositionStart,#mermaid-diagram-mermaid-g9fzr78 .composition{fill:#666!important;stroke:#666!important;stroke-width:1;}#mermaid-diagram-mermaid-g9fzr78 #compositionEnd,#mermaid-diagram-mermaid-g9fzr78 .composition{fill:#666!important;stroke:#666!important;stroke-width:1;}#mermaid-diagram-mermaid-g9fzr78 #dependencyStart,#mermaid-diagram-mermaid-g9fzr78 .dependency{fill:#666!important;stroke:#666!important;stroke-width:1;}#mermaid-diagram-mermaid-g9fzr78 #dependencyStart,#mermaid-diagram-mermaid-g9fzr78 .dependency{fill:#666!important;stroke:#666!important;stroke-width:1;}#mermaid-diagram-mermaid-g9fzr78 #extensionStart,#mermaid-diagram-mermaid-g9fzr78 .extension{fill:transparent!important;stroke:#666!important;stroke-width:1;}#mermaid-diagram-mermaid-g9fzr78 #extensionEnd,#mermaid-diagram-mermaid-g9fzr78 .extension{fill:transparent!important;stroke:#666!important;stroke-width:1;}#mermaid-diagram-mermaid-g9fzr78 #aggregationStart,#mermaid-diagram-mermaid-g9fzr78 .aggregation{fill:transparent!important;stroke:#666!important;stroke-width:1;}#mermaid-diagram-mermaid-g9fzr78 #aggregationEnd,#mermaid-diagram-mermaid-g9fzr78 .aggregation{fill:transparent!important;stroke:#666!important;stroke-width:1;}#mermaid-diagram-mermaid-g9fzr78 #lollipopStart,#mermaid-diagram-mermaid-g9fzr78 .lollipop{fill:#eee!important;stroke:#666!important;stroke-width:1;}#mermaid-diagram-mermaid-g9fzr78 #lollipopEnd,#mermaid-diagram-mermaid-g9fzr78 .lollipop{fill:#eee!important;stroke:#666!important;stroke-width:1;}#mermaid-diagram-mermaid-g9fzr78 .edgeTerminals{font-size:11px;line-height:initial;}#mermaid-diagram-mermaid-g9fzr78 .classTitleText{text-anchor:middle;font-size:18px;fill:#000000;}#mermaid-diagram-mermaid-g9fzr78 :root{--mermaid-font-family:"trebuchet ms",verdana,arial,sans-serif;}</style><g><defs><marker id="mermaid-diagram-mermaid-g9fzr78_class-aggregationStart" class="marker aggregation class" refX="18" refY="7" markerWidth="190" markerHeight="240" orient="auto"><path d="M 18,7 L9,13 L1,7 L9,1 Z"></path></marker></defs><defs><marker id="mermaid-diagram-mermaid-g9fzr78_class-aggregationEnd" class="marker aggregation class" refX="1" refY="7" markerWidth="20" markerHeight="28" orient="auto"><path d="M 18,7 L9,13 L1,7 L9,1 Z"></path></marker></defs><defs><marker id="mermaid-diagram-mermaid-g9fzr78_class-extensionStart" class="marker extension class" refX="18" refY="7" markerWidth="190" markerHeight="240" orient="auto"><path d="M 1,7 L18,13 V 1 Z"></path></marker></defs><defs><marker id="mermaid-diagram-mermaid-g9fzr78_class-extensionEnd" class="marker extension class" refX="1" refY="7" markerWidth="20" markerHeight="28" orient="auto"><path d="M 1,1 V 13 L18,7 Z"></path></marker></defs><defs><marker id="mermaid-diagram-mermaid-g9fzr78_class-compositionStart" class="marker composition class" refX="18" refY="7" markerWidth="190" markerHeight="240" orient="auto"><path d="M 18,7 L9,13 L1,7 L9,1 Z"></path></marker></defs><defs><marker id="mermaid-diagram-mermaid-g9fzr78_class-compositionEnd" class="marker composition class" refX="1" refY="7" markerWidth="20" markerHeight="28" orient="auto"><path d="M 18,7 L9,13 L1,7 L9,1 Z"></path></marker></defs><defs><marker id="mermaid-diagram-mermaid-g9fzr78_class-dependencyStart" class="marker dependency class" refX="6" refY="7" markerWidth="190" markerHeight="240" orient="auto"><path d="M 5,7 L9,13 L1,7 L9,1 Z"></path></marker></defs><defs><marker id="mermaid-diagram-mermaid-g9fzr78_class-dependencyEnd" class="marker dependency class" refX="13" refY="7" markerWidth="20" markerHeight="28" orient="auto"><path d="M 18,7 L9,13 L14,7 L9,1 Z"></path></marker></defs><defs><marker id="mermaid-diagram-mermaid-g9fzr78_class-lollipopStart" class="marker lollipop class" refX="13" refY="7" markerWidth="190" markerHeight="240" orient="auto"><circle stroke="black" fill="transparent" cx="7" cy="7" r="6"></circle></marker></defs><defs><marker id="mermaid-diagram-mermaid-g9fzr78_class-lollipopEnd" class="marker lollipop class" refX="1" refY="7" markerWidth="190" markerHeight="240" orient="auto"><circle stroke="black" fill="transparent" cx="7" cy="7" r="6"></circle></marker></defs><g class="root"><g class="clusters"></g><g class="edgePaths"><path d="M143.008,128L143.008,134.167C143.008,140.333,143.008,152.667,143.008,164C143.008,175.333,143.008,185.667,143.008,190.833L143.008,196" id="id_Application_Prometheus_1" class="edge-thickness-normal edge-pattern-solid relation" style=";" marker-end="url(#mermaid-diagram-mermaid-g9fzr78_class-dependencyEnd)"></path></g><g class="edgeLabels"><g class="edgeLabel" transform="translate(143.0078125, 165)"><g class="label" transform="translate(-57.1796875, -12)"><foreignObject width="114.359375" height="24"><div style="display: table-cell; white-space: nowrap; line-height: 1.5; max-width: 200px; text-align: center;" xmlns="http://www.w3.org/1999/xhtml" class="labelBkg"><span style=";display: inline-block" class="edgeLabel"><p>filtered by label</p></span></div></foreignObject></g></g></g><g class="nodes"><g class="node default" id="classId-Application-172" transform="translate(143.0078125, 68)"><g class="basic label-container"><path d="M-135.0078125 -60 L135.0078125 -60 L135.0078125 60 L-135.0078125 60" stroke="none" stroke-width="0" fill="#eee" style=""></path><path d="M-135.0078125 -60 C-33.311626912293846 -60, 68.38455867541231 -60, 135.0078125 -60 M-135.0078125 -60 C-50.11943526422405 -60, 34.7689419715519 -60, 135.0078125 -60 M135.0078125 -60 C135.0078125 -20.715559851413715, 135.0078125 18.56888029717257, 135.0078125 60 M135.0078125 -60 C135.0078125 -21.00389599887876, 135.0078125 17.992208002242478, 135.0078125 60 M135.0078125 60 C76.7836431327805 60, 18.559473765560995 60, -135.0078125 60 M135.0078125 60 C80.20702258182439 60, 25.406232663648765 60, -135.0078125 60 M-135.0078125 60 C-135.0078125 33.17320580854356, -135.0078125 6.346411617087121, -135.0078125 -60 M-135.0078125 60 C-135.0078125 12.998634193402225, -135.0078125 -34.00273161319555, -135.0078125 -60" stroke="#999" stroke-width="1.3" fill="none" style=""></path></g><g class="annotation-group text" transform="translate(0, -36)"></g><g class="label-group text" transform="translate(-41.75, -36)"><g class="label" style="font-weight: bolder" transform="translate(0,-12)"><foreignObject width="83.5" height="24"><div style="display: table-cell; white-space: nowrap; line-height: 1.5; max-width: 134px; text-align: center;" xmlns="http://www.w3.org/1999/xhtml"><span class="nodeLabel markdown-node-label" style=""><p>Application</p></span></div></foreignObject></g></g><g class="members-group text" transform="translate(-123.0078125, 12)"><g class="label" style="" transform="translate(0,-12)"><foreignObject width="204.265625" height="24"><div style="display: table-cell; white-space: nowrap; line-height: 1.5; max-width: 277px; text-align: center;" xmlns="http://www.w3.org/1999/xhtml"><span class="nodeLabel markdown-node-label" style=""><p>+String serviceNameKeyword</p></span></div></foreignObject></g></g><g class="methods-group text" transform="translate(-123.0078125, 60)"></g><g class="divider" style=""><path d="M-135.0078125 -12 C-35.04219259947298 -12, 64.92342730105403 -12, 135.0078125 -12 M-135.0078125 -12 C-42.20551221435113 -12, 50.59678807129774 -12, 135.0078125 -12" stroke="#999" stroke-width="1.3" fill="none" style=""></path></g><g class="divider" style=""><path d="M-135.0078125 36 C-68.68998532829735 36, -2.3721581565947076 36, 135.0078125 36 M-135.0078125 36 C-55.21074585313909 36, 24.586320793721825 36, 135.0078125 36" stroke="#999" stroke-width="1.3" fill="none" style=""></path></g></g><g class="node default" id="classId-Prometheus-173" transform="translate(143.0078125, 244)"><g class="basic label-container"><path d="M-56.3046875 -42 L56.3046875 -42 L56.3046875 42 L-56.3046875 42" stroke="none" stroke-width="0" fill="#eee" style=""></path><path d="M-56.3046875 -42 C-26.364842200072758 -42, 3.5750030998544844 -42, 56.3046875 -42 M-56.3046875 -42 C-22.08035947210292 -42, 12.14396855579416 -42, 56.3046875 -42 M56.3046875 -42 C56.3046875 -9.387005657220854, 56.3046875 23.225988685558292, 56.3046875 42 M56.3046875 -42 C56.3046875 -23.843881506770582, 56.3046875 -5.687763013541165, 56.3046875 42 M56.3046875 42 C18.30152678301601 42, -19.701633933967983 42, -56.3046875 42 M56.3046875 42 C22.55147697342514 42, -11.201733553149722 42, -56.3046875 42 M-56.3046875 42 C-56.3046875 17.394334149349444, -56.3046875 -7.211331701301113, -56.3046875 -42 M-56.3046875 42 C-56.3046875 16.40739399837788, -56.3046875 -9.185212003244239, -56.3046875 -42" stroke="#999" stroke-width="1.3" fill="none" style=""></path></g><g class="annotation-group text" transform="translate(0, -18)"></g><g class="label-group text" transform="translate(-44.3046875, -18)"><g class="label" style="font-weight: bolder" transform="translate(0,-12)"><foreignObject width="88.609375" height="24"><div style="display: table-cell; white-space: nowrap; line-height: 1.5; max-width: 140px; text-align: center;" xmlns="http://www.w3.org/1999/xhtml"><span class="nodeLabel markdown-node-label" style=""><p>Prometheus</p></span></div></foreignObject></g></g><g class="members-group text" transform="translate(-44.3046875, 30)"></g><g class="methods-group text" transform="translate(-44.3046875, 60)"></g><g class="divider" style=""><path d="M-56.3046875 6 C-24.45982974887753 6, 7.385028002244937 6, 56.3046875 6 M-56.3046875 6 C-13.939439601372364 6, 28.425808297255273 6, 56.3046875 6" stroke="#999" stroke-width="1.3" fill="none" style=""></path></g><g class="divider" style=""><path d="M-56.3046875 24 C-13.001938808543983 24, 30.300809882912034 24, 56.3046875 24 M-56.3046875 24 C-11.45785917295234 24, 33.38896915409532 24, 56.3046875 24" stroke="#999" stroke-width="1.3" fill="none" style=""></path></g></g></g></g></g></svg>